<?xml version="1.0" encoding="utf-8"?>
<svg version="1.1" id="Ebene_1" xmlns="http://www.w3.org/2000/svg" xmlns:xlink="http://www.w3.org/1999/xlink" x="0px" y="0px"
	 viewBox="0 0 200 130" style="enable-background:new 0 0 200 130;" xml:space="preserve">
<style type="text/css">
	.st0{fill:#75E9FB;}
	.st1{fill:#78D4F8;}
	.st2{fill:#80BCF3;}
	.st3{fill:#88A6EE;}
	.st4{fill:#9091EB;}
	.st5{fill:#997CE6;}
	.st6{fill:none;stroke:#78D4F8;stroke-width:0.7;stroke-linecap:round;stroke-linejoin:round;stroke-miterlimit:10;}
	.st7{fill:none;stroke:#80BCF3;stroke-width:0.7;stroke-linecap:round;stroke-linejoin:round;stroke-miterlimit:10;}
	.st8{fill:none;stroke:#88A6EE;stroke-width:0.7;stroke-linecap:round;stroke-linejoin:round;stroke-miterlimit:10;}
	.st9{fill:none;stroke:#9091EB;stroke-width:0.7;stroke-linecap:round;stroke-linejoin:round;stroke-miterlimit:10;}
	.st10{fill:none;stroke:#997CE6;stroke-width:0.7;stroke-linecap:round;stroke-linejoin:round;stroke-miterlimit:10;}
</style>
<g>
	<g>
		<path class="st0" d="M144,75.4c0,0-21.7,0.1-43.5,0.2c-5.4,0-10.9,0-16,0.1c-2.6,0-5.1,0-7.4,0c-2.3,0-4.5,0-6.6-0.1
			c-8.2,0-13.6-0.2-13.6-0.2l0,0l0,0c0,0,5.4-0.1,13.6-0.2c2,0,4.3,0,6.6-0.1c2.3,0,4.8,0,7.4,0c5.1,0,10.5,0,16,0.1
			C122.2,75.2,144,75.3,144,75.4C144,75.3,144,75.3,144,75.4C144,75.3,144,75.4,144,75.4"/>
		<path class="st1" d="M148.3,65.7c0,0-21.3,4.6-42.6,9.2c-5.3,1.2-10.6,2.3-15.6,3.4c-2.5,0.5-4.9,1.1-7.2,1.5
			c-2.3,0.4-4.4,0.9-6.5,1.3c-8,1.7-13.3,2.7-13.3,2.7l0,0l0,0c0,0,5.3-1.2,13.3-2.9c2-0.4,4.2-0.9,6.5-1.4c2.3-0.5,4.7-1,7.2-1.5
			c5-1.1,10.3-2.1,15.6-3.3C127,70.1,148.3,65.7,148.3,65.7L148.3,65.7L148.3,65.7"/>
		<path class="st1" d="M137.8,83.8c0,0-5.3-1.1-13.3-2.7c-2-0.4-4.2-0.9-6.5-1.3c-2.3-0.4-4.7-1-7.2-1.5c-5-1.1-10.3-2.2-15.6-3.4
			c-21.3-4.6-42.6-9.2-42.6-9.2l0,0l0,0c0,0,21.3,4.4,42.6,8.9c5.3,1.2,10.6,2.2,15.6,3.3c2.5,0.5,4.9,1.1,7.2,1.5
			c2.3,0.5,4.4,1,6.5,1.4C132.6,82.6,137.8,83.8,137.8,83.8S137.9,83.8,137.8,83.8C137.9,83.8,137.8,83.8,137.8,83.8"/>
		<path class="st2" d="M150.5,55.4c0,0-19.9,9-39.7,17.8c-5,2.2-9.9,4.4-14.6,6.6c-2.3,1.1-4.6,2-6.7,3s-4.2,1.9-6,2.7
			c-7.4,3.3-12.5,5.4-12.5,5.4l0,0l0,0c0,0,5-2.3,12.4-5.7c1.9-0.9,3.9-1.8,6-2.7c2.1-1,4.3-2,6.7-3c4.7-2,9.7-4.3,14.6-6.5
			C130.6,64.2,150.5,55.4,150.5,55.4L150.5,55.4L150.5,55.4"/>
		<path class="st2" d="M130,90.9c0,0-5.1-2.1-12.5-5.4c-1.9-0.8-3.9-1.7-6-2.7c-2.1-1-4.4-2-6.7-3c-4.6-2.1-9.6-4.3-14.5-6.6
			c-19.9-8.9-39.7-17.8-39.7-17.8l0,0l0,0c0,0,19.9,8.8,39.8,17.6c5,2.2,9.9,4.4,14.6,6.5c2.3,1.1,4.6,2,6.7,3c2.1,1,4.2,1.9,6,2.7
			C125.1,88.5,130,90.8,130,90.9C130,90.8,130.1,90.8,130,90.9L130,90.9"/>
		<path class="st3" d="M150.5,45l-35.1,25.7c-4.4,3.2-8.8,6.4-12.9,9.4c-2,1.5-4.1,2.9-5.9,4.3c-1.9,1.3-3.7,2.7-5.3,3.8
			c-6.6,4.8-11.1,7.9-11.1,7.9l0,0l0,0c0,0,4.3-3.3,10.9-8.1c1.7-1.2,3.5-2.5,5.3-3.9c1.9-1.4,3.9-2.8,5.9-4.3
			c4.2-3,8.5-6.2,12.9-9.4C132.9,57.6,150.5,44.9,150.5,45C150.5,44.9,150.5,44.9,150.5,45L150.5,45"/>
		<path class="st3" d="M120.9,96.1c0,0-4.4-3.1-11.1-7.9c-1.7-1.2-3.5-2.5-5.3-3.8c-1.9-1.3-3.9-2.8-5.9-4.3
			c-4.1-3-8.5-6.2-12.9-9.4C68.1,57.8,50.5,45,50.5,45l0,0l0,0c0,0,17.6,12.8,35.3,25.4c4.4,3.2,8.8,6.4,12.9,9.4
			c2,1.5,4.1,2.9,5.9,4.3c1.9,1.4,3.6,2.7,5.3,3.9C116.6,92.8,121,96.1,120.9,96.1C121,96.1,121,96.1,120.9,96.1
			C121,96.1,121,96.1,120.9,96.1"/>
		<path class="st4" d="M148.3,34.7c0,0-14.5,16.2-29,32.4c-3.6,4.1-7.3,8.1-10.6,11.9c-1.7,1.9-3.4,3.7-5,5.5
			c-1.6,1.7-3.1,3.4-4.4,4.9c-5.5,6-9.2,10-9.2,10l0,0l0,0c0,0,3.5-4.1,9-10.2c1.3-1.5,2.8-3.2,4.3-5c1.6-1.8,3.2-3.5,4.9-5.5
			c3.5-3.8,7.1-7.8,10.7-11.9C133.7,50.7,148.3,34.6,148.3,34.7C148.3,34.6,148.3,34.6,148.3,34.7L148.3,34.7"/>
		<path class="st4" d="M111,99.4c0,0-3.7-4-9.2-10c-1.4-1.5-2.8-3.1-4.4-4.9s-3.2-3.5-5-5.5c-3.4-3.8-7-7.9-10.6-11.9
			c-14.5-16.2-29-32.4-29-32.4l0,0l0,0c0,0,14.6,16.1,29.3,32.3c3.6,4.1,7.3,8.1,10.7,11.9c1.7,1.9,3.4,3.7,4.9,5.5
			c1.6,1.8,3,3.4,4.3,5C107.4,95.2,111,99.3,111,99.4C111,99.3,111,99.3,111,99.4L111,99.4"/>
		<path class="st5" d="M144,25l-21.6,37.8c-2.7,4.7-5.4,9.4-8,13.8c-1.2,2.2-2.5,4.3-3.7,6.4c-1.2,2-2.3,3.9-3.4,5.7
			c-4.1,7-6.9,11.7-6.9,11.7l0,0l0,0c0,0,2.7-4.8,6.6-11.9c1-1.8,2.1-3.7,3.3-5.8c1.2-2,2.4-4.2,3.6-6.4c2.6-4.4,5.3-9.1,8.1-13.8
			L144,25L144,25L144,25"/>
		<path class="st5" d="M100.5,100.5c0,0-2.8-4.7-6.9-11.7c-1.1-1.8-2.1-3.6-3.4-5.7c-1.2-2-2.4-4.2-3.7-6.4c-2.6-4.4-5.2-9.1-8-13.8
			C67.8,44,57,25,57,25l0,0l0,0c0,0,11,18.8,21.9,37.6c2.7,4.7,5.5,9.4,8.1,13.8c1.2,2.2,2.5,4.3,3.6,6.4c1.2,2,2.2,4,3.3,5.8
			C97.9,95.7,100.5,100.5,100.5,100.5L100.5,100.5L100.5,100.5"/>
		<path class="st4" d="M137.9,16.6l-13.3,41.5c-1.7,5.1-3.4,10.4-4.9,15.2c-0.8,2.4-1.6,4.8-2.3,7c-0.7,2.2-1.4,4.3-2,6.3
			c-2.6,7.7-4.3,12.9-4.3,12.9l0,0l0,0c0,0,1.6-5.2,4.1-12.9c0.6-2,1.2-4.1,2-6.3c0.7-2.2,1.5-4.6,2.3-7c1.6-4.9,3.3-10,5-15.2
			L137.9,16.6C137.8,16.5,137.8,16.5,137.9,16.6C137.9,16.5,137.9,16.5,137.9,16.6"/>
		<path class="st4" d="M90,99.3c0,0-1.8-5.1-4.3-12.9c-0.6-2-1.3-4-2-6.3c-0.7-2.2-1.5-4.6-2.3-7c-1.6-4.9-3.2-10-4.9-15.2
			L63.1,16.6l0,0l0,0l13.6,41.3c1.7,5.1,3.4,10.4,5,15.2c0.8,2.4,1.5,4.8,2.3,7c0.7,2.2,1.3,4.3,2,6.3C88.4,94.2,90,99.3,90,99.3
			S90,99.4,90,99.3C90,99.4,90,99.4,90,99.3"/>
		<path class="st3" d="M130,9.5c0,0-2.2,21.6-4.4,43.3c-0.5,5.4-1.1,10.8-1.6,15.9c-0.3,2.6-0.5,5-0.8,7.3s-0.5,4.5-0.7,6.6
			c-0.9,8.1-1.6,13.5-1.6,13.5l0,0l0,0c0,0,0.4-5.4,1.2-13.6c0.2-2,0.4-4.3,0.6-6.6c0.3-2.3,0.5-4.8,0.8-7.4
			c0.5-5.1,1.2-10.5,1.7-15.9C127.6,31.1,130,9.5,130,9.5L130,9.5C130,9.5,130.1,9.5,130,9.5"/>
		<path class="st3" d="M80,96.1c0,0-0.7-5.4-1.6-13.5c-0.3-2-0.4-4.3-0.7-6.6s-0.5-4.8-0.8-7.3c-0.5-5.1-1.1-10.5-1.6-15.9
			c-2.2-21.6-4.4-43.3-4.4-43.3l0,0l0,0c0,0,2.4,21.6,4.7,43.3c0.6,5.4,1.2,10.8,1.7,15.9c0.3,2.6,0.5,5,0.8,7.4
			c0.3,2.3,0.4,4.5,0.6,6.6C79.6,90.7,80.1,96.1,80,96.1C80.1,96.1,80.1,96.1,80,96.1L80,96.1"/>
		<path class="st2" d="M121,4.3l4.7,43.3c0.6,5.4,1.2,10.8,1.7,15.9c0.3,2.6,0.5,5,0.8,7.4c0.3,2.3,0.4,4.5,0.6,6.6
			c0.8,8.2,1.2,13.6,1.2,13.6l0,0l0,0c0,0-0.7-5.4-1.6-13.5c-0.3-2-0.4-4.3-0.7-6.6s-0.5-4.8-0.8-7.3c-0.5-5.1-1.1-10.5-1.6-15.9
			L121,4.3C120.9,4.3,120.9,4.3,121,4.3L121,4.3"/>
		<path class="st2" d="M71,90.8c0,0,0.4-5.4,1.2-13.6c0.2-2,0.4-4.3,0.6-6.6c0.3-2.3,0.5-4.8,0.8-7.4c0.5-5.1,1.2-10.5,1.7-15.9
			C77.7,25.8,80,4.2,80,4.2l0,0l0,0c0,0-2.2,21.6-4.4,43.3c-0.5,5.4-1.1,10.8-1.6,15.9c-0.3,2.6-0.5,5-0.8,7.3
			c-0.3,2.3-0.5,4.5-0.7,6.6C71.7,85.5,71,90.8,71,90.8C71,90.9,71,90.9,71,90.8C71,90.9,71,90.9,71,90.8"/>
		<path class="st1" d="M63.1,83.8c0,0,1.6-5.2,4.1-12.9c0.6-2,1.2-4.1,2-6.3c0.7-2.2,1.5-4.6,2.3-7c1.6-4.9,3.3-10,5-15.2L90,1.1
			l0,0l0,0L76.7,42.6c-1.5,5.1-3.2,10.3-4.8,15.1c-0.8,2.4-1.6,4.8-2.3,7c-0.7,2.2-1.4,4.3-2,6.3C65,78.7,63.2,83.8,63.1,83.8
			C63.2,83.8,63.2,83.8,63.1,83.8L63.1,83.8"/>
		<path class="st1" d="M111,1l13.6,41.3c1.7,5.1,3.4,10.4,5,15.2c0.8,2.4,1.5,4.8,2.3,7c0.7,2.2,1.3,4.3,2,6.3
			c2.5,7.8,4.1,12.9,4.1,12.9l0,0l0,0c0,0-1.8-5.1-4.3-12.9c-0.6-2-1.3-4-2-6.3c-0.7-2.2-1.5-4.6-2.3-7c-1.6-4.9-3.2-10-4.9-15.2
			L111,1L111,1L111,1"/>
	</g>
	<g>
		<path class="st6" d="M170,114.2h-6.2c-2,0-3.7,1.6-3.7,3.7v7.4c0,2,1.6,3.7,3.7,3.7h6.2v-22.1"/>
		<polyline class="st7" points="152.8,116.7 152.8,114.2 145.4,114.2 145.4,129 		"/>
		<line class="st7" x1="138" y1="108.1" x2="138" y2="106.8"/>
		<line class="st7" x1="138" y1="129" x2="138" y2="114.2"/>
		<path class="st8" d="M120.9,114.2h6.2c2,0,3.7,1.6,3.7,3.7v7.4c0,2-1.6,3.7-3.7,3.7h-6.2v-22.1"/>
		<line class="st8" x1="106.2" y1="129" x2="106.2" y2="114.2"/>
		<line class="st8" x1="106.2" y1="114.2" x2="113.5" y2="114.2"/>
		<line class="st8" x1="113.5" y1="114.2" x2="113.5" y2="116.7"/>
		<path class="st9" d="M98.8,129h-6.2c-2,0-3.7-1.6-3.7-3.7v-6.2c0-2.7,2.2-4.9,4.9-4.9c2.7,0,4.9,2.2,4.9,4.9v2.4h-9.9"/>
		<polyline class="st9" points="81.5,114.2 77.9,129 74.2,119.1 70.5,129 66.8,114.2 		"/>
		<path class="st10" d="M59.5,119.1v4.9c0,2.7-2.2,4.9-4.9,4.9s-4.9-2.2-4.9-4.9v-4.9c0-2.7,2.2-4.9,4.9-4.9S59.5,116.4,59.5,119.1z
			"/>
		<path class="st10" d="M30,116.7h6.2c2.7,0,4.9-2.2,4.9-4.9c0-2.7-2.2-4.9-4.9-4.9H30v22.1h6.2c3.4,0,6.2-2.8,6.2-6.2
			c0-3.4-2.8-6.2-6.2-6.2"/>
	</g>
</g>
</svg>
